<svg xmlns:x="http://ns.adobe.com/Extensibility/1.0/" xmlns:i="http://ns.adobe.com/AdobeIllustrator/10.0/" xmlns:graph="http://ns.adobe.com/Graphs/1.0/" xmlns="http://www.w3.org/2000/svg" xmlns:xlink="http://www.w3.org/1999/xlink" version="1.0" x="0px" y="0px" viewBox="0 0 100 125" enable-background="new 0 0 100 100" xml:space="preserve"><metadata><sfw xmlns="http://ns.adobe.com/SaveForWeb/1.0/"><slices/><sliceSourceBounds y="-8142" x="-8141" width="320" height="320" bottomLeftOrigin="true"/></sfw></metadata><g><g><path d="M76.4,32.399C76.4,17.819,64.58,6,49.999,6S23.6,17.819,23.6,32.399c0,10.516,6.148,19.593,15.046,23.839l-9.766,26.34    l9.047-4.153l4.153,9.05l8.455-22.807L59.686,94l4.625-8.817l8.816,4.624L62.479,55.668C70.766,51.216,76.4,42.466,76.4,32.399z     M49.999,53.52c-11.664,0-21.119-9.456-21.119-21.12s9.455-21.12,21.119-21.12c11.665,0,21.12,9.455,21.12,21.12    S61.664,53.52,49.999,53.52z"/><polygon points="53.322,27.657 49.999,17.429 46.677,27.657 35.922,27.657 44.622,33.977 41.299,44.205 49.999,37.883     58.699,44.205 55.377,33.977 64.078,27.657   "/></g></g><text x="0" y="115" fill="#000000" font-size="5px" font-weight="bold" font-family="'Helvetica Neue', Helvetica, Arial-Unicode, Arial, Sans-serif">Created by Ralf Schmitzer</text><text x="0" y="120" fill="#000000" font-size="5px" font-weight="bold" font-family="'Helvetica Neue', Helvetica, Arial-Unicode, Arial, Sans-serif">from the Noun Project</text></svg>
