<svg xmlns="http://www.w3.org/2000/svg" xmlns:xlink="http://www.w3.org/1999/xlink" version="1.1" x="0px" y="0px" viewBox="0 0 48 60" enable-background="new 0 0 48 48" xml:space="preserve"><g><path d="M46.4,15.2c-0.7-0.6-1.6-0.9-2.5-0.8c-1.6,0.2-3.4,1.2-5.4,2.8c-0.1,0-0.2,0-0.3,0V4.9c0-1.6-1.3-2.9-2.9-2.9   c-0.4,0-0.7,0.1-1,0.2C33.9,0.9,32.7,0,31.4,0c-1.4,0-2.6,1-2.9,2.4c-0.3-0.1-0.6-0.2-1-0.2c-1.6,0-2.9,1.3-2.9,2.9v0.4   c-0.3-0.1-0.6-0.2-0.9-0.2c-1.6,0-2.9,1.3-2.9,2.9v1.6c-0.3-0.1-0.6-0.2-1-0.2c-1.4,0-2.5,0.9-2.8,2.2c-0.3-0.1-0.7-0.2-1-0.2   c-1.6,0-2.9,1.3-2.9,2.9v12.6c-2.1-1.9-4-2.9-5.7-3.1c-0.9-0.1-1.8,0.2-2.5,0.8c-0.7,0.6-1.1,1.5-1.1,2.5c0,1.2,0.7,2.3,1.8,2.9   l0.9,0.4c0.5,0.3,1,0.7,1.4,1.2l1.7,2.3c0.5,0.6,1,1.2,1.7,1.6c1.2,0.7,1.9,2,1.9,3.3v0.5c-1,0.7-1.7,1.9-1.7,3.2v1   c0,2.2,1.8,4,4,4h10.9c2.2,0,4-1.8,4-4v-1c0-1.4-0.7-2.5-1.7-3.3v-1.4h8c1.9,0,3.4-1.5,3.4-3.4v-2.2c0-1.2-0.7-2.3-1.7-2.9v-0.3   c0-1.4,0.7-2.6,1.9-3.3c0.7-0.4,1.3-0.9,1.7-1.6l1.7-2.3c0.4-0.5,0.8-0.9,1.4-1.2l0.9-0.4c1.1-0.6,1.8-1.7,1.8-2.9   C47.5,16.7,47.1,15.8,46.4,15.2z M22.7,8.3c0-0.5,0.4-0.9,0.9-0.9s0.9,0.4,0.9,0.9v0.7v3.2c-0.3-0.1-0.6-0.2-1-0.2   c-0.3,0-0.6,0.1-0.9,0.2V8.3z M28.2,44c0,1.1-0.9,2-2,2H15.3c-1.1,0-2-0.9-2-2v-1c0-1.1,0.9-2,2-2h10.9c1.1,0,2,0.9,2,2V44z    M28.4,27.2c0,1.5-0.3,2.9-0.9,4.3c-0.7,1.6-1,3.3-1,5.1V39c-0.1,0-0.2,0-0.3,0H15.3c-0.1,0-0.2,0-0.3,0c-0.1-2-1.1-3.8-2.8-4.9   c-0.5-0.3-0.8-0.6-1.1-1.1l-1.7-2.3C8.7,30,8,29.4,7.2,28.9l-0.9-0.4c-0.4-0.2-0.7-0.6-0.7-1.1c0-0.4,0.2-0.7,0.4-1   c0.3-0.2,0.6-0.3,0.9-0.3c1.2,0.1,3.2,1,6.3,4.2c0.3,0.3,0.7,0.4,1.1,0.2c0.4-0.2,0.6-0.5,0.6-0.9v-15c0-0.5,0.4-0.9,0.9-0.9   c0.5,0,0.9,0.4,0.9,0.9v9.1c0,0.6,0.4,1,1,1s1-0.4,1-1v-9.1v-2c0-0.5,0.4-0.9,0.9-0.9s0.9,0.4,0.9,0.9v2.2v9.6c0,0.6,0.4,1,1,1   s1-0.4,1-1v-9.6c0-0.5,0.4-0.9,0.9-0.9c0.5,0,0.9,0.4,0.9,0.9V18v5.8c0,0.6,0.4,1,1,1s1-0.4,1-1V18c0-0.5,0.4-0.9,0.9-0.9   s0.9,0.4,0.9,0.9V27.2z M27.5,15.1c-0.3,0-0.6,0.1-0.9,0.2l0-6.3V8.3V5.1c0-0.5,0.4-0.9,0.9-0.9c0.5,0,0.9,0.4,0.9,0.9v9.6   c0,0.3,0.1,0.5,0.3,0.7C28.3,15.2,27.9,15.1,27.5,15.1z M37.8,34.8c0,0.8-0.6,1.4-1.4,1.4h-7.9c0-1.4,0.3-2.7,0.9-4   c0.1-0.3,0.3-0.7,0.4-1h6.7c0.8,0,1.4,0.6,1.4,1.4V34.8z M44.8,18.8l-0.9,0.4c-0.8,0.4-1.5,1-2.1,1.8l-1.7,2.3   c-0.3,0.4-0.7,0.8-1.1,1.1c-1.7,1-2.8,2.9-2.8,4.8h-6c0.1-0.7,0.2-1.3,0.2-2V18c0-1-0.5-1.9-1.2-2.4c0.1,0,0.2,0.1,0.3,0.1   c0.6,0,1-0.4,1-1V2.9c0-0.5,0.4-0.9,0.9-0.9s0.9,0.4,0.9,0.9V14c0,0.6,0.4,1,1,1s1-0.4,1-1V4.9c0-0.5,0.4-0.9,0.9-0.9   c0.5,0,0.9,0.4,0.9,0.9v12.4c-2.9,0.7-4.5,3.1-5,4.6c-0.2,0.5,0.1,1.1,0.6,1.3c0.1,0,0.2,0.1,0.3,0.1c0.4,0,0.8-0.3,0.9-0.7   c0.1-0.2,1.4-4,5.6-3.3c0.4,0.1,0.7-0.1,0.9-0.3c0,0,0.1,0,0.1-0.1c2.1-1.9,3.6-2.4,4.5-2.5c0.3,0,0.6,0.1,0.9,0.3   c0.3,0.2,0.4,0.6,0.4,1C45.5,18.1,45.2,18.5,44.8,18.8z"/><path d="M5.4,18.2c0,0.4,0.2,0.8,0.6,1c0.1,0.1,0.3,0.1,0.4,0.1c0.2,0,0.5-0.1,0.7-0.3l3.9-3.6c0.4-0.4,0.4-1,0.1-1.4   c-0.4-0.4-1-0.4-1.4-0.1l-2.1,1.9L7.8,13c0-0.5-0.3-1-0.8-1.1l-2.8-0.4l2.3-1.6C6.9,9.6,7.1,9,6.8,8.6L5.4,6.1l2.7,0.8   c0.5,0.2,1-0.1,1.2-0.6l1-2.6l1,2.6c0.2,0.5,0.7,0.7,1.2,0.6l2.7-0.8l-1.4,2.5c-0.3,0.5-0.1,1.1,0.4,1.4c0.5,0.3,1.1,0.1,1.4-0.4   l2.7-4.6c0.2-0.4,0.2-0.8-0.1-1.1c-0.3-0.3-0.7-0.5-1.1-0.3l-4.2,1.3l-1.6-4.1C11.1,0.3,10.8,0,10.4,0C9.9,0,9.6,0.3,9.4,0.6   L7.8,4.8L3.6,3.5c-0.4-0.1-0.8,0-1.1,0.3C2.2,4.1,2.2,4.6,2.4,4.9l2.2,3.8l-3.7,2.5c-0.3,0.2-0.5,0.6-0.4,1C0.6,12.7,1,13,1.4,13.1   l4.4,0.7L5.4,18.2z"/></g><text x="0" y="63" fill="#000000" font-size="5px" font-weight="bold" font-family="'Helvetica Neue', Helvetica, Arial-Unicode, Arial, Sans-serif">Created by Vectors Market</text><text x="0" y="68" fill="#000000" font-size="5px" font-weight="bold" font-family="'Helvetica Neue', Helvetica, Arial-Unicode, Arial, Sans-serif">from the Noun Project</text></svg>