<svg xmlns="http://www.w3.org/2000/svg" xmlns:xlink="http://www.w3.org/1999/xlink" version="1.1" x="0px" y="0px" viewBox="0 0 134.465 287.72749999999996" style="enable-background:new 0 0 134.465 230.182;" xml:space="preserve"><g><path d="M53.889,92.581l0.195,1.886l-1.172,0.187c0.071,0.386,0.148,0.775,0.233,1.165c0.069,0.314,0.147,0.65,0.234,1.001   c0.627,2.533,1.759,5.967,3.767,9.439c2.811,4.81,6.593,8.551,11.295,11.232v-8.612V67.023c1.404-0.262,2.895-0.589,4.488-1.01   c7.404-1.984,16.639-5.907,25.01-13.423c8.372-7.486,15.665-18.67,18.87-34.022c0.913-4.322-1.855-8.566-6.177-9.478   c-4.324-0.91-8.568,1.855-9.478,6.179C97.653,31.5,89.466,40.051,81.017,45.328c-4.228,2.596-8.547,4.249-12.219,5.226   c-2.916,0.79-5.467,1.129-7.004,1.228c-0.354-0.049-0.713-0.084-1.081-0.084h-9.217c-0.205,1.419-0.688,2.782-1.443,3.983   L53.889,92.581z"/><path d="M51.084,109.759c-1.903-3.296-3.157-6.542-3.986-9.361c-0.512-1.743-0.864-3.324-1.103-4.649l-1.251,0.197l-0.396-1.855   l-1.314-6.164c-4.211,3.883-8.111,6.967-11.795,9.311c-0.052,0.032-0.1,0.058-0.151,0.09c-5.638,3.504-10.302,5.143-15.026,5.298   c-0.165,0.005-0.33,0.024-0.495,0.026h-0.01h-0.074c-0.379,0-0.757-0.013-1.133-0.037v6.265v18.939v90   c0,6.83,5.537,12.363,12.363,12.363c6.828,0,12.365-5.533,12.365-12.363v-82.271h4.635v82.271c0,6.83,5.537,12.363,12.363,12.363   c6.828,0,12.365-5.533,12.365-12.363v-90v-2.438C59.528,121.409,54.21,115.207,51.084,109.759z"/><path d="M40.706,40.103c0.453-0.071,0.914-0.108,1.369-0.108c2.818,0,5.426,1.384,7.201,3.574   c6.809-2.554,12.255-8.354,14.029-15.968c2.816-12.1-4.709-24.191-16.807-27.01c-12.1-2.816-24.193,4.707-27.012,16.807   c-2.691,11.557,4.054,23.099,15.206,26.569C36.138,41.862,38.262,40.489,40.706,40.103z"/><path d="M86.887,124.418c-7.693-0.381-13.705-2.121-18.445-4.613c-6.299-3.312-10.343-7.955-13.025-12.545   c-2.039-3.524-3.246-7.027-3.951-9.846c-0.101-0.405-0.192-0.796-0.274-1.171c-0.288-1.319-0.457-2.421-0.559-3.254l1.266-0.2   L50.54,79.723c-0.473,1.011-1.107,1.95-1.911,2.77c-1.33,1.358-2.621,2.624-3.89,3.834l1.565,7.346l1.362-0.215   c0.166,1.322,0.484,3.225,1.092,5.473c0.779,2.88,2.034,6.325,4.059,9.833c3.059,5.332,7.998,10.749,15.623,14.378   c4.911,2.336,10.925,3.938,18.302,4.275c17.466,0.791,28.695,15.473,35.575,30.408c3.422,7.435,5.726,14.851,7.166,20.395   c1.441,5.545,2.011,9.174,2.018,9.184l2.963-0.469c-0.017-0.078-2.379-15.049-9.422-30.361   C118.024,141.321,106.172,125.377,86.887,124.418z"/><path d="M49.474,51.698c0.164-0.914,0.189-1.875,0.034-2.857c-0.289-1.831-1.13-3.42-2.298-4.609   c-1.619-1.647-3.87-2.521-6.191-2.154c-1.704,0.27-3.165,1.163-4.231,2.433c-1.438,1.712-2.157,4.111-1.761,6.618   c0.03,0.194,0.077,0.381,0.119,0.569c0.477,2.107,1.684,3.857,3.274,4.969l1.898,8.906c0.385-0.044,0.772-0.073,1.166-0.073   c2.63,0,5.112,1.013,6.993,2.855c0.369,0.361,0.696,0.752,1.001,1.157l-1.493-14.356C48.73,54.169,49.243,52.983,49.474,51.698z"/><path d="M14.35,100.606c0.378,0.027,0.757,0.046,1.133,0.046c0.021,0,0.042,0,0.064,0c0.702-0.007,1.396-0.06,2.084-0.14   c3.608-0.414,7.07-1.778,10.72-3.875c0.6-0.345,1.204-0.706,1.815-1.089c3.786-2.406,7.858-5.639,12.385-9.891   c0.557-0.523,1.128-1.077,1.699-1.631c0.965-0.937,1.943-1.902,2.95-2.931c3.09-3.158,3.035-8.222-0.123-11.313   c-1.748-1.712-4.081-2.454-6.34-2.243c-0.664,0.062-1.319,0.211-1.954,0.438c-1.104,0.396-2.142,1.032-3.017,1.928   c-5.853,5.988-10.634,9.898-14.166,12.128c-2.097,1.354-3.724,2.036-4.77,2.36c4.533-3.839,12.8-11.073,17.504-15.886   c1.143-1.169,2.521-2.015,4.027-2.508l-1.748-8.199c-1.818-1.522-3.07-3.697-3.51-6.104H22.078c-0.613,0-1.206,0.079-1.778,0.213   c-3.492,0.379-6.545,1.923-8.868,3.802c-4.062,3.309-6.642,7.604-8.521,12.155C1.076,72.442,0.02,77.315,0,82.166   c0.033,3.9,0.635,7.914,3.046,11.754c0.926,1.452,2.186,2.842,3.725,3.965c0.469,0.342,0.958,0.665,1.479,0.95   C10.118,99.875,12.241,100.453,14.35,100.606z"/></g><text x="0" y="245.182" fill="#000000" font-size="5px" font-weight="bold" font-family="'Helvetica Neue', Helvetica, Arial-Unicode, Arial, Sans-serif">Created by Gan Khoon Lay</text><text x="0" y="250.182" fill="#000000" font-size="5px" font-weight="bold" font-family="'Helvetica Neue', Helvetica, Arial-Unicode, Arial, Sans-serif">from the Noun Project</text></svg>
